<?xml version="1.0" encoding="UTF-8"?>
<svg version="1.1" xmlns="http://www.w3.org/2000/svg" width="1280" height="1280">
    <path
        d="M0 0 C422.4 0 844.8 0 1280 0 C1280 422.4 1280 844.8 1280 1280 C857.6 1280 435.2 1280 0 1280 C0 857.6 0 435.2 0 0 Z "
        fill="#A96732" transform="translate(0,0)" />
    <path
        d="M0 0 C0.69 -0 1.38 -0.01 2.1 -0.01 C4.38 -0.01 6.67 -0 8.95 0.02 C9.74 0.02 10.52 0.02 11.33 0.03 C58.55 0.24 104.89 7.15 150.2 20.27 C151.94 20.75 153.67 21.24 155.4 21.72 C167.64 25.21 179.52 29.55 191.37 34.17 C194.06 35.21 196.76 36.2 199.47 37.19 C201.03 37.77 202.58 38.36 204.14 38.95 C205.21 39.33 205.21 39.33 206.29 39.71 C208.23 40.46 208.23 40.46 211.2 42.27 C212.77 45.98 212.29 48.48 210.95 52.13 C210.33 53.61 209.71 55.1 209.08 56.58 C198.16 84.76 195.59 119.02 204.2 148.27 C204.5 149.35 204.5 149.35 204.8 150.45 C213.4 181.29 230.72 208.81 256.2 228.27 C257.11 228.99 258.02 229.72 258.96 230.46 C292.31 256.5 334.05 266.65 375.89 261.84 C383.11 260.75 390.16 259.16 397.2 257.27 C397.92 257.08 398.64 256.89 399.38 256.7 C411.99 253.31 425.12 247.42 436.13 240.4 C437.16 239.84 437.16 239.84 438.2 239.27 C441.77 240.46 442.04 241.18 443.88 244.33 C444.65 245.63 444.65 245.63 445.43 246.95 C445.97 247.9 446.52 248.85 447.08 249.83 C447.65 250.81 448.22 251.8 448.81 252.81 C450.62 255.95 452.42 259.11 454.2 262.27 C454.76 263.26 455.33 264.25 455.9 265.27 C468.19 287.13 478.62 309.71 487.2 333.27 C487.6 334.35 487.99 335.43 488.4 336.55 C501.56 373.13 511.68 412.36 514.2 451.27 C513.5 451.41 512.8 451.55 512.07 451.69 C479.24 458.33 449.2 469.05 424.37 492.26 C422.51 493.98 420.62 495.56 418.64 497.14 C391.2 520.75 376.55 561.06 373.52 596.2 C373.4 598.22 373.29 600.24 373.2 602.27 C373.14 603.43 373.14 603.43 373.08 604.62 C372.14 638.62 384.34 675.23 406.2 701.27 C407.15 702.43 408.1 703.59 409.04 704.75 C421.82 720.21 437.01 732.52 454.61 742.18 C455.14 742.54 455.66 742.9 456.2 743.27 C456.2 743.93 456.2 744.59 456.2 745.27 C456.86 745.27 457.52 745.27 458.2 745.27 C457.62 750.21 455.43 753.95 453.02 758.2 C452.58 758.98 452.14 759.76 451.69 760.56 C442.47 776.73 432.16 792.23 421.2 807.27 C420.07 808.83 420.07 808.83 418.91 810.42 C402.28 832.95 383.57 853.92 363.83 873.77 C363.19 874.41 362.54 875.06 361.88 875.72 C357.49 880.11 352.91 884.22 348.2 888.27 C347.02 889.3 345.85 890.33 344.67 891.37 C336.04 898.92 327.23 906.2 318.2 913.27 C317.51 913.91 316.81 914.56 316.09 915.23 C314.2 916.27 314.2 916.27 311.76 915.81 C308.56 913.88 306.53 911.42 304.27 908.52 C278.08 876.43 241.17 856.09 199.83 851.49 C161.66 848.19 124.31 858.93 93.2 881.27 C92.03 882.1 92.03 882.1 90.82 882.95 C88.54 884.65 86.37 886.42 84.2 888.27 C83.72 888.68 83.24 889.09 82.74 889.51 C52.36 915.64 34.24 954.71 30.2 994.27 C29.96 997.93 29.79 1001.6 29.64 1005.27 C29.6 1006.23 29.55 1007.2 29.51 1008.19 C29.4 1010.55 29.3 1012.91 29.2 1015.27 C-44.19 1016.19 -112.7 1005.74 -181.17 978.45 C-182.12 978.08 -183.08 977.71 -184.06 977.32 C-184.93 976.97 -185.8 976.61 -186.7 976.25 C-187.47 975.94 -188.24 975.63 -189.03 975.31 C-190.8 974.27 -190.8 974.27 -191.8 971.27 C-191.22 968.98 -191.22 968.98 -190.25 966.29 C-189.9 965.29 -189.55 964.3 -189.19 963.28 C-188.81 962.22 -188.44 961.17 -188.05 960.08 C-174.53 920.97 -176.71 876.99 -194.61 839.54 C-200.84 827.08 -208.89 815.94 -217.8 805.27 C-218.52 804.4 -219.24 803.53 -219.99 802.64 C-224.24 797.72 -228.78 793.4 -233.8 789.27 C-234.55 788.63 -235.29 787.99 -236.07 787.34 C-266.45 762.1 -307.39 750.07 -346.57 753.51 C-369.11 755.93 -390.36 762.56 -410.13 773.74 C-416.45 777.31 -416.45 777.31 -418.8 777.27 C-423.64 773.52 -426.29 768.42 -429.23 763.14 C-429.75 762.23 -430.26 761.31 -430.79 760.37 C-446.61 732 -460.41 703.07 -470.8 672.27 C-471.14 671.25 -471.49 670.24 -471.84 669.2 C-496.22 597.26 -496.22 597.26 -493.8 566.27 C-490.89 563.36 -487.52 563.45 -483.61 562.89 C-444.75 556.84 -407.6 536.68 -384.06 504.59 C-381.18 500.56 -378.46 496.44 -375.8 492.27 C-375.39 491.63 -374.98 490.99 -374.57 490.34 C-363.81 473.21 -357.88 454.17 -354.8 434.27 C-354.62 433.16 -354.45 432.06 -354.27 430.92 C-353.48 424.8 -353.55 418.68 -353.55 412.52 C-353.55 411.82 -353.55 411.13 -353.54 410.42 C-353.56 399.13 -354.24 388.29 -356.8 377.27 C-357.05 376.16 -357.05 376.16 -357.3 375.04 C-364.88 342.61 -383.58 311.16 -409.8 290.27 C-410.68 289.56 -411.56 288.85 -412.46 288.12 C-418.49 283.44 -424.55 279.48 -431.34 276 C-435.57 273.75 -435.57 273.75 -436.63 271.48 C-436.87 268.34 -435.77 266.73 -434.22 264 C-433.64 262.98 -433.06 261.95 -432.47 260.89 C-431.83 259.8 -431.2 258.7 -430.55 257.58 C-429.58 255.89 -429.58 255.89 -428.6 254.17 C-423.31 244.98 -417.73 236.04 -411.8 227.27 C-411.28 226.49 -410.76 225.71 -410.22 224.92 C-403.42 214.76 -396.45 204.81 -388.8 195.27 C-388.28 194.61 -387.75 193.96 -387.22 193.29 C-381.22 185.82 -375.21 178.38 -368.8 171.27 C-368.14 170.53 -367.48 169.79 -366.8 169.03 C-344.9 144.55 -344.9 144.55 -334.04 135.23 C-331.87 133.33 -329.77 131.38 -327.67 129.41 C-321.76 123.9 -315.6 118.85 -309.2 113.92 C-306.97 112.2 -304.79 110.44 -302.64 108.61 C-301.68 107.79 -300.72 106.98 -299.73 106.14 C-298.9 105.42 -298.06 104.69 -297.2 103.95 C-294.66 102.17 -292.85 101.62 -289.8 101.27 C-289.43 101.76 -289.06 102.26 -288.69 102.78 C-268.03 130.17 -239.5 149.18 -206.8 159.27 C-206.15 159.47 -205.5 159.67 -204.83 159.88 C-167.23 171.17 -124.21 165.55 -89.73 147.27 C-83.79 144.01 -78.2 140.35 -72.8 136.27 C-72.08 135.74 -71.35 135.21 -70.61 134.66 C-45.59 115.85 -26.95 90.1 -17.43 60.26 C-16.86 58.45 -16.25 56.65 -15.64 54.85 C-10.92 39.92 -9.53 24.02 -9.18 8.44 C-8.95 0.74 -7.48 0.01 0 0 Z "
        fill="#121212" transform="translate(628.796875,128.734375)" />
    <path
        d="M0 0 C1 0.15 2.01 0.29 3.04 0.44 C54.97 8.37 106.62 33.94 143 72 C145.4 74.42 147.82 76.83 150.29 79.18 C157.28 85.93 163.2 93.23 169 101 C169.43 101.57 169.86 102.15 170.3 102.74 C194.37 135.18 211.13 171.7 218.88 211.44 C219.07 212.42 219.26 213.4 219.45 214.41 C222.36 230.41 223.38 246.39 223.31 262.62 C223.31 263.93 223.31 263.93 223.31 265.25 C223.26 279.68 222.47 293.76 220 308 C219.77 309.43 219.77 309.43 219.53 310.88 C212.01 355.64 191.58 400.31 161 434 C160.18 434.93 159.36 435.86 158.51 436.82 C155.72 439.93 152.88 442.98 150 446 C149.35 446.68 148.7 447.37 148.03 448.07 C137.74 458.83 127.12 468.36 115 477 C113.88 477.81 112.76 478.63 111.64 479.45 C82.25 500.4 48.82 514.36 13.56 521.81 C12.64 522.01 11.72 522.2 10.77 522.4 C-5.97 525.76 -22.28 526.41 -39.31 526.38 C-41.05 526.37 -41.05 526.37 -42.81 526.37 C-59.88 526.34 -76.29 525.76 -93 522 C-94.48 521.69 -94.48 521.69 -95.99 521.37 C-142.04 511.47 -184.9 489.81 -219.3 457.51 C-221.49 455.48 -223.71 453.54 -226 451.62 C-235.34 443.51 -243.37 433.69 -251 424 C-252.02 422.74 -252.02 422.74 -253.06 421.46 C-294.4 368.8 -311.94 298.35 -304.41 232.33 C-300.78 203.25 -292.65 175.43 -280 149 C-279.55 148.05 -279.09 147.1 -278.63 146.12 C-265.97 120 -248.97 96.98 -229 76 C-228.32 75.27 -227.63 74.55 -226.93 73.8 C-221.67 68.38 -215.89 63.71 -210 59 C-208.89 58.07 -207.77 57.15 -206.66 56.22 C-149.5 8.8 -73.01 -10.73 0 0 Z "
        fill="#A96732" transform="translate(680,375)" />
    <path
        d="M0 0 C1.01 -0.01 2.02 -0.03 3.06 -0.04 C4.71 -0.04 4.71 -0.04 6.39 -0.05 C7.52 -0.05 8.66 -0.06 9.83 -0.07 C12.25 -0.08 14.66 -0.08 17.08 -0.08 C20.72 -0.08 24.37 -0.12 28.01 -0.16 C60.73 -0.32 60.73 -0.32 72.16 9.29 C72.77 9.79 73.38 10.3 74.01 10.81 C82.66 18.65 85.65 28.74 86.42 40.06 C86.87 51.39 85.47 60.87 77.91 69.73 C74.03 73.7 70.09 76.75 65.16 79.29 C64.01 79.89 62.85 80.49 61.66 81.1 C60.42 81.69 60.42 81.69 59.16 82.29 C68.16 98.87 77.24 115.41 87.08 131.51 C89.15 134.91 91.18 138.32 93.22 141.73 C93.99 143 94.75 144.27 95.51 145.54 C96.33 146.9 96.33 146.9 97.16 148.29 C93.52 150.11 89.22 149.22 85.22 149.04 C84.3 149.01 83.38 148.99 82.44 148.96 C81.55 148.92 80.67 148.88 79.76 148.84 C78.95 148.8 78.14 148.77 77.31 148.74 C74.6 148.17 73.86 147.45 72.16 145.29 C71.03 143.5 69.94 141.67 68.9 139.82 C68.26 138.71 67.62 137.59 66.97 136.44 C66.28 135.22 65.6 134.01 64.91 132.79 C64.2 131.54 63.5 130.29 62.79 129.05 C60.57 125.13 58.37 121.21 56.16 117.29 C55.62 116.32 55.62 116.32 55.06 115.34 C52.96 111.6 50.86 107.86 48.77 104.12 C47.8 102.38 46.83 100.65 45.86 98.91 C45.27 97.85 44.68 96.79 44.08 95.7 C43.56 94.77 43.04 93.85 42.51 92.89 C41.22 90.4 40.15 87.91 39.16 85.29 C35.02 85.43 30.87 85.58 26.72 85.73 C25.54 85.77 24.36 85.81 23.14 85.85 C22.01 85.89 20.89 85.93 19.73 85.97 C18.69 86.01 17.64 86.05 16.57 86.09 C14.21 86.03 14.21 86.03 13.16 87.29 C13.04 89.19 12.98 91.1 12.96 93 C12.94 94.22 12.92 95.45 12.9 96.7 C12.88 98.05 12.86 99.39 12.85 100.73 C12.82 102.1 12.8 103.46 12.78 104.83 C12.73 108.43 12.68 112.03 12.63 115.64 C12.58 119.31 12.52 122.98 12.47 126.66 C12.36 133.87 12.26 141.08 12.16 148.29 C9.18 148.32 6.2 148.34 3.22 148.35 C2.37 148.36 1.52 148.37 0.65 148.38 C-0.16 148.38 -0.97 148.38 -1.8 148.39 C-2.55 148.39 -3.3 148.4 -4.07 148.4 C-5.84 148.29 -5.84 148.29 -6.84 147.29 C-6.94 145.42 -6.97 143.55 -6.97 141.68 C-6.98 140.46 -6.98 139.24 -6.99 137.99 C-6.98 136.62 -6.98 135.26 -6.98 133.9 C-6.99 132.47 -6.99 131.05 -6.99 129.62 C-7 125.74 -7 121.86 -7.01 117.98 C-7.01 114.74 -7.01 111.5 -7.01 108.27 C-7.02 100.64 -7.02 93.01 -7.02 85.37 C-7.02 77.49 -7.03 69.61 -7.05 61.72 C-7.06 54.96 -7.07 48.21 -7.07 41.45 C-7.07 37.41 -7.07 33.37 -7.08 29.32 C-7.09 25.53 -7.09 21.73 -7.08 17.93 C-7.08 16.53 -7.08 15.13 -7.09 13.73 C-7.1 11.83 -7.09 9.93 -7.09 8.03 C-7.09 6.96 -7.09 5.9 -7.09 4.8 C-6.62 0.06 -4.14 0.04 0 0 Z "
        fill="#121212" transform="translate(432.83837890625,555.70947265625)" />
    <path
        d="M0 0 C1.19 0.01 1.19 0.01 2.41 0.02 C3.67 0.01 3.67 0.01 4.95 0.01 C7.72 0.01 10.5 0.02 13.28 0.03 C15.2 0.03 17.12 0.03 19.05 0.03 C23.08 0.03 27.11 0.04 31.14 0.05 C36.32 0.07 41.51 0.07 46.69 0.07 C50.66 0.07 54.63 0.08 58.6 0.09 C60.51 0.09 62.42 0.09 64.33 0.09 C67 0.1 69.66 0.1 72.33 0.11 C73.13 0.11 73.92 0.11 74.74 0.11 C80.19 0.15 80.19 0.15 81.3 1.26 C81.38 3.79 81.4 6.29 81.37 8.82 C81.36 9.53 81.36 10.24 81.35 10.98 C81.34 12.74 81.32 14.5 81.3 16.26 C80.47 16.27 79.63 16.28 78.77 16.29 C70.89 16.39 63.02 16.49 55.15 16.6 C51.1 16.65 47.05 16.71 43.01 16.76 C39.1 16.8 35.2 16.86 31.3 16.91 C29.8 16.93 28.31 16.95 26.82 16.97 C24.74 16.99 22.65 17.02 20.57 17.05 C19.38 17.07 18.19 17.09 16.97 17.1 C14.38 16.96 14.38 16.96 13.3 18.26 C13.21 19.64 13.19 21.03 13.19 22.41 C13.19 23.73 13.19 23.73 13.19 25.08 C13.2 26.04 13.2 27 13.21 27.98 C13.21 29.45 13.21 29.45 13.21 30.94 C13.22 34.07 13.23 37.19 13.24 40.32 C13.25 42.44 13.25 44.55 13.26 46.67 C13.27 51.87 13.28 57.06 13.3 62.26 C13.94 62.27 14.58 62.28 15.23 62.29 C21.84 62.4 28.44 62.51 35.04 62.63 C37.51 62.68 39.97 62.72 42.44 62.76 C45.98 62.81 49.51 62.88 53.05 62.94 C54.72 62.97 54.72 62.97 56.42 62.99 C57.95 63.02 57.95 63.02 59.51 63.05 C60.41 63.07 61.32 63.09 62.25 63.1 C64.3 63.26 64.3 63.26 65.3 64.26 C65.38 66.96 65.4 69.63 65.37 72.32 C65.36 73.08 65.36 73.84 65.35 74.62 C65.34 76.5 65.32 78.38 65.3 80.26 C64.35 80.28 64.35 80.28 63.38 80.29 C56.77 80.4 50.17 80.51 43.57 80.63 C41.1 80.68 38.64 80.72 36.17 80.76 C32.63 80.81 29.1 80.88 25.56 80.94 C23.89 80.97 23.89 80.97 22.19 80.99 C21.17 81.01 20.15 81.03 19.1 81.05 C17.74 81.08 17.74 81.08 16.36 81.1 C14.31 81.03 14.31 81.03 13.3 82.26 C13.21 83.76 13.19 85.27 13.19 86.78 C13.19 88.22 13.19 88.22 13.19 89.69 C13.2 90.74 13.2 91.78 13.21 92.86 C13.21 94.45 13.21 94.45 13.21 96.08 C13.22 99.5 13.23 102.91 13.24 106.32 C13.25 108.63 13.25 110.94 13.26 113.25 C13.27 118.92 13.28 124.59 13.3 130.26 C14.14 130.27 14.98 130.28 15.84 130.29 C23.71 130.39 31.59 130.49 39.46 130.6 C43.51 130.65 47.56 130.71 51.6 130.76 C55.51 130.8 59.41 130.86 63.31 130.91 C64.81 130.93 66.3 130.95 67.79 130.97 C69.87 130.99 71.96 131.02 74.04 131.05 C75.23 131.07 76.42 131.09 77.64 131.1 C80.3 131.26 80.3 131.26 81.3 132.26 C81.38 134.96 81.4 137.63 81.37 140.32 C81.36 141.08 81.36 141.84 81.35 142.62 C81.34 144.5 81.32 146.38 81.3 148.26 C69.85 148.28 58.39 148.3 46.94 148.31 C41.62 148.32 36.3 148.32 30.98 148.34 C25.85 148.35 20.72 148.35 15.59 148.35 C13.63 148.36 11.67 148.36 9.71 148.37 C6.97 148.37 4.23 148.37 1.5 148.37 C0.68 148.38 -0.14 148.38 -0.99 148.38 C-6.58 148.37 -6.58 148.37 -7.7 147.26 C-7.8 145.39 -7.83 143.52 -7.83 141.65 C-7.83 140.43 -7.84 139.21 -7.84 137.96 C-7.84 136.59 -7.84 135.23 -7.84 133.87 C-7.84 132.44 -7.85 131.02 -7.85 129.59 C-7.86 125.71 -7.86 121.83 -7.86 117.94 C-7.86 114.71 -7.87 111.47 -7.87 108.24 C-7.88 100.61 -7.88 92.97 -7.88 85.34 C-7.88 77.46 -7.89 69.58 -7.91 61.69 C-7.92 54.93 -7.92 48.18 -7.92 41.42 C-7.92 37.38 -7.93 33.34 -7.94 29.29 C-7.95 25.49 -7.95 21.7 -7.94 17.9 C-7.94 16.5 -7.94 15.1 -7.95 13.7 C-7.95 11.8 -7.95 9.9 -7.94 8 C-7.94 6.93 -7.94 5.87 -7.94 4.77 C-7.44 -0.35 -4.42 0.03 0 0 Z "
        fill="#121212" transform="translate(556.6954040527344,555.7400512695313)" />
    <path
        d="M0 0 C2 2 2 2 2.2 5.48 C2.18 6.86 2.16 8.24 2.12 9.62 C2.12 10.33 2.11 11.04 2.1 11.77 C2.07 13.51 2.04 15.26 2 17 C-3.29 16.04 -8.38 14.46 -13.53 12.94 C-27.56 9.15 -42.19 9.37 -54.94 16.69 C-58.97 21.21 -61.2 26.42 -61.44 32.5 C-61.12 38.02 -60.22 43.27 -56.65 47.65 C-49.85 53.49 -40.3 55.99 -32 59 C-0.32 70.58 -0.32 70.58 7 86 C11.07 97.08 11.24 114.06 6.26 124.85 C0.35 134.91 -6.65 141.66 -18 145 C-25.23 146.83 -32.18 147.35 -39.62 147.31 C-40.67 147.31 -41.72 147.3 -42.81 147.3 C-56.93 147.09 -70.99 145.01 -83 137 C-83.29 133.74 -83.29 133.74 -83.19 129.88 C-83.16 128.59 -83.13 127.31 -83.11 125.99 C-83.07 125 -83.04 124.02 -83 123 C-78.96 121.32 -75.74 122.87 -71.88 124.31 C-62.04 127.88 -52.91 129.35 -42.44 129.31 C-41.46 129.33 -40.48 129.34 -39.48 129.36 C-31.35 129.37 -23.76 128.32 -17.56 122.62 C-16.92 122.06 -16.29 121.5 -15.63 120.91 C-10.46 114.84 -11.4 106.47 -11.8 98.95 C-12.33 93.81 -14.55 90.54 -18.06 86.81 C-26.25 81.76 -35.38 78.72 -44.44 75.62 C-71.47 66.1 -71.47 66.1 -77.27 54.44 C-78.28 51.98 -79.18 49.53 -80 47 C-80.5 45.51 -80.5 45.51 -81 44 C-82.41 30.11 -80.77 17.87 -71.72 6.74 C-54.18 -11.04 -21.14 -11.2 0 0 Z "
        fill="#121212" transform="translate(739,560)" />
    <path
        d="M0 0 C0.76 0 1.53 0 2.31 0 C3.19 -0 4.07 -0.01 4.97 -0.01 C6.42 -0 6.42 -0 7.89 0.01 C9.41 0 9.41 0 10.96 0 C14.32 -0 17.68 0.01 21.04 0.02 C23.37 0.02 25.7 0.02 28.02 0.02 C32.9 0.02 37.78 0.03 42.66 0.04 C48.93 0.06 55.2 0.06 61.47 0.06 C66.28 0.06 71.08 0.07 75.89 0.08 C78.2 0.08 80.51 0.08 82.83 0.08 C86.05 0.08 89.28 0.09 92.5 0.1 C93.95 0.1 93.95 0.1 95.43 0.1 C96.3 0.11 97.18 0.11 98.08 0.12 C99.22 0.12 99.22 0.12 100.39 0.12 C102.13 0.25 102.13 0.25 103.13 1.25 C103.21 3.78 103.22 6.28 103.19 8.81 C103.19 9.52 103.19 10.23 103.18 10.97 C103.17 12.73 103.15 14.49 103.13 16.25 C101.87 16.27 100.6 16.3 99.29 16.32 C94.61 16.42 89.93 16.52 85.24 16.62 C83.21 16.66 81.18 16.71 79.15 16.75 C76.24 16.8 73.33 16.87 70.42 16.93 C69.05 16.96 69.05 16.96 67.65 16.98 C63.56 16.67 63.56 16.67 60.13 18.25 C60.02 19.93 59.99 21.62 59.97 23.3 C59.96 24.95 59.96 24.95 59.94 26.62 C59.94 27.84 59.93 29.05 59.93 30.3 C59.92 31.56 59.91 32.83 59.9 34.14 C59.87 37.63 59.85 41.11 59.83 44.6 C59.81 48.24 59.78 51.88 59.75 55.52 C59.7 62.42 59.66 69.32 59.62 76.22 C59.57 84.07 59.51 91.93 59.46 99.78 C59.34 115.93 59.23 132.09 59.13 148.25 C56.15 148.28 53.17 148.3 50.19 148.31 C49.34 148.32 48.49 148.33 47.62 148.34 C46.81 148.34 46 148.34 45.17 148.35 C44.42 148.35 43.67 148.36 42.9 148.36 C41.13 148.25 41.13 148.25 40.13 147.25 C40.02 145.57 39.99 143.88 39.97 142.19 C39.96 141.1 39.95 140 39.94 138.87 C39.94 137.66 39.93 136.45 39.93 135.2 C39.92 133.93 39.91 132.67 39.9 131.36 C39.87 127.87 39.85 124.38 39.83 120.9 C39.81 117.26 39.78 113.61 39.75 109.97 C39.7 103.08 39.66 96.18 39.62 89.28 C39.57 81.42 39.51 73.57 39.46 65.72 C39.34 49.56 39.23 33.41 39.13 17.25 C37.87 17.22 36.6 17.2 35.29 17.17 C30.61 17.08 25.93 16.98 21.24 16.88 C19.21 16.83 17.18 16.79 15.15 16.75 C12.24 16.69 9.33 16.63 6.42 16.57 C5.5 16.55 4.59 16.53 3.65 16.51 C-2.75 16.36 -2.75 16.36 -3.87 15.25 C-3.99 13.11 -4.04 10.96 -4.06 8.81 C-4.07 7.64 -4.08 6.46 -4.1 5.25 C-3.85 1.97 -3.48 0.46 0 0 Z "
        fill="#121212" transform="translate(761.8675088882446,555.7511110305786)" />
    <path
        d="M0 0 C1.68 -0 1.68 -0 3.4 -0.01 C4.58 -0 5.75 0.01 6.97 0.02 C8.69 0 8.69 0 10.45 -0.01 C20.07 0.01 30.37 0.44 38.47 6.27 C44.4 12.47 45.81 19.37 45.72 27.7 C45.73 28.79 45.73 28.79 45.74 29.9 C45.72 37.02 44.55 43.33 39.46 48.57 C31.67 55.19 21.24 54.81 11.59 54.62 C9.31 54.58 7.03 54.56 4.75 54.55 C-6.35 54.45 -6.35 54.45 -7.53 53.27 C-7.63 51.68 -7.67 50.09 -7.68 48.5 C-7.68 47.49 -7.69 46.47 -7.7 45.43 C-7.7 44.32 -7.7 43.22 -7.7 42.08 C-7.7 40.39 -7.7 40.39 -7.71 38.67 C-7.71 36.28 -7.72 33.9 -7.72 31.51 C-7.72 27.85 -7.74 24.18 -7.76 20.52 C-7.76 18.21 -7.76 15.9 -7.76 13.58 C-7.77 12.48 -7.78 11.38 -7.78 10.24 C-7.78 9.22 -7.78 8.21 -7.77 7.16 C-7.78 6.26 -7.78 5.36 -7.78 4.44 C-7.23 -0.38 -4.05 0.01 0 0 Z "
        fill="#A96732" transform="translate(452.53125,571.734375)" />
</svg>