<?xml version="1.0" encoding="UTF-8"?>
<svg xmlns="http://www.w3.org/2000/svg" xmlns:xlink="http://www.w3.org/1999/xlink" width="40pt"
  height="40pt" viewBox="0 0 40 40" version="1.1">
  <defs>
    <filter id="alpha" filterUnits="objectBoundingBox" x="0%" y="0%" width="100%" height="100%">
      <feColorMatrix type="matrix" in="SourceGraphic"
        values="0 0 0 0 1 0 0 0 0 1 0 0 0 0 1 0 0 0 1 0" />
    </filter>
    <mask id="mask0">
      <g filter="url(#alpha)">
        <rect x="0" y="0" width="40" height="40"
          style="fill:rgb(0%,0%,0%);fill-opacity:0.101961;stroke:none;" />
      </g>
    </mask>
    <clipPath id="clip1">
      <rect width="40" height="40" />
    </clipPath>
    <g id="surface6" clip-path="url(#clip1)">
      <path style=" stroke:none;fill-rule:nonzero;fill:rgb(0%,0%,0%);fill-opacity:1;"
        d="M 25.4375 15.148438 C 25.4375 15.148438 27.855469 20.949219 24.558594 24.238281 C 21.257812 27.527344 15.253906 25.421875 15.253906 25.421875 L 27.46875 37.667969 L 28.707031 37.667969 C 29.636719 37.667969 30.496094 37.171875 30.957031 36.367188 L 36.71875 26.394531 Z M 25.4375 15.148438 " />
    </g>
  </defs>
  <g id="surface1">
    <path
      style=" stroke:none;fill-rule:nonzero;fill:rgb(26.27451%,52.54902%,98.039216%);fill-opacity:1;"
      d="M 9.050781 36.371094 L 0.347656 21.300781 C -0.117188 20.496094 -0.117188 19.503906 0.347656 18.699219 L 9.050781 3.628906 C 9.515625 2.824219 10.371094 2.328125 11.300781 2.328125 L 28.710938 2.328125 C 29.636719 2.332031 30.488281 2.828125 30.953125 3.628906 L 39.652344 18.699219 C 40.117188 19.503906 40.117188 20.496094 39.652344 21.300781 L 30.949219 36.371094 C 30.484375 37.175781 29.628906 37.671875 28.699219 37.671875 L 11.292969 37.671875 C 10.367188 37.671875 9.511719 37.175781 9.046875 36.371094 Z M 9.050781 36.371094 " />
    <use xlink:href="#surface6" mask="url(#mask0)" />
    <path style=" stroke:none;fill-rule:nonzero;fill:rgb(100%,100%,100%);fill-opacity:1;"
      d="M 28.292969 27.019531 L 25.625 24.34375 C 25.597656 24.316406 25.5625 24.289062 25.527344 24.269531 C 27.878906 21.238281 27.46875 16.898438 24.589844 14.359375 C 21.707031 11.820312 17.351562 11.960938 14.636719 14.679688 C 11.925781 17.398438 11.796875 21.757812 14.34375 24.632812 C 16.886719 27.507812 21.230469 27.90625 24.257812 25.542969 C 24.273438 25.578125 24.300781 25.609375 24.328125 25.636719 L 27 28.3125 C 27.164062 28.472656 27.429688 28.472656 27.59375 28.3125 L 28.292969 27.609375 C 28.457031 27.445312 28.457031 27.183594 28.292969 27.019531 Z M 19.773438 25.289062 C 16.753906 25.289062 14.304688 22.84375 14.304688 19.820312 C 14.304688 16.800781 16.753906 14.351562 19.773438 14.351562 C 22.796875 14.351562 25.242188 16.800781 25.242188 19.820312 C 25.242188 22.839844 22.792969 25.289062 19.773438 25.289062 Z M 16.28125 19.53125 L 16.28125 21.789062 C 16.628906 22.40625 17.132812 22.917969 17.742188 23.273438 L 17.742188 19.515625 Z M 19.015625 17.65625 L 19.015625 23.765625 C 19.496094 23.851562 19.992188 23.851562 20.476562 23.765625 L 20.476562 17.65625 Z M 23.242188 21.785156 L 23.242188 20.445312 L 21.78125 20.445312 L 21.78125 23.257812 C 22.390625 22.902344 22.894531 22.390625 23.242188 21.777344 Z M 23.242188 21.785156 " />
  </g>
</svg>