<?xml version="1.0" encoding="UTF-8"?>
<svg version="1.1" xmlns="http://www.w3.org/2000/svg" preserveAspectRatio="xMidYMid meet" width="40" height="40" viewBox="0 -48 1280 1280">
    <path
        d="M0 0 C0.94 -0 1.88 -0 2.84 -0.01 C5.99 -0.01 9.14 -0.01 12.29 -0.01 C14.57 -0.02 16.85 -0.02 19.12 -0.02 C25.39 -0.03 31.66 -0.04 37.92 -0.04 C43.98 -0.04 50.05 -0.05 56.11 -0.06 C72.35 -0.08 88.59 -0.09 104.83 -0.1 C112.52 -0.1 120.21 -0.11 127.9 -0.11 C154.22 -0.13 180.55 -0.15 206.88 -0.16 C208.53 -0.16 210.18 -0.16 211.83 -0.16 C212.65 -0.16 213.47 -0.16 214.32 -0.16 C218.47 -0.16 222.62 -0.16 226.77 -0.16 C227.59 -0.16 228.42 -0.16 229.27 -0.16 C255.96 -0.17 282.66 -0.19 309.36 -0.23 C337.6 -0.26 365.84 -0.28 394.08 -0.28 C397.19 -0.28 400.29 -0.28 403.39 -0.28 C404.16 -0.28 404.92 -0.28 405.71 -0.28 C417.98 -0.29 430.25 -0.3 442.53 -0.32 C454.87 -0.34 467.22 -0.35 479.57 -0.34 C486.25 -0.33 492.94 -0.34 499.62 -0.36 C505.75 -0.37 511.87 -0.37 518 -0.36 C520.21 -0.35 522.42 -0.36 524.63 -0.37 C541.26 -0.46 557.3 0.81 572.54 8.13 C573.13 8.42 573.73 8.7 574.34 8.99 C583.75 13.51 592.85 18.34 601.54 24.13 C601.54 24.79 601.54 25.45 601.54 26.13 C602.13 26.39 602.72 26.64 603.32 26.9 C605.81 28.29 607.16 29.76 608.97 31.95 C610.96 34.3 612.92 36.52 615.1 38.7 C624.83 48.42 632 59.57 637.91 71.91 C639.74 75.54 641.88 78.79 644.2 82.12 C645.91 84.7 647.22 87.39 648.55 90.18 C649.56 92.19 650.7 94.05 651.91 95.95 C653.84 98.97 655.59 102.04 657.29 105.2 C659.76 109.8 662.39 114.29 665.1 118.76 C667.9 123.4 670.65 128.05 673.25 132.8 C681.43 147.63 690.05 162.24 698.66 176.82 C702.31 182.99 705.85 189.21 709.35 195.46 C713.24 202.4 717.24 209.28 721.31 216.12 C724.27 221.11 727.06 226.11 729.6 231.32 C732.18 236.59 735.2 241.33 738.54 246.13 C741.54 250.63 744.1 255.2 746.47 260.07 C748.7 264.61 751.17 268.72 754.04 272.87 C756.25 276.21 758.09 279.72 759.97 283.25 C761.6 286.25 763.31 289.19 765.04 292.13 C767.28 295.95 769.45 299.79 771.54 303.7 C773.57 307.48 775.76 311.1 778.1 314.7 C780.81 318.88 783.06 323.11 785.22 327.59 C787.19 331.39 789.53 334.93 791.89 338.49 C793.64 341.3 795.07 344.17 796.54 347.13 C797.63 349.04 798.73 350.94 799.85 352.82 C802.21 356.82 804.48 360.85 806.66 364.95 C808.37 368.13 810.14 371.1 812.29 374.01 C814.27 376.76 815.35 379.01 816.54 382.13 C816.99 382.73 817.44 383.33 817.91 383.95 C819.35 385.88 820.31 387.61 821.35 389.76 C823.24 393.64 825.39 397.29 827.63 400.97 C833.58 410.85 839.34 420.85 844.82 431 C850.94 442.16 857.19 453.27 864.16 463.93 C865.82 466.59 867.17 469.35 868.52 472.19 C869.67 474.38 871 476.35 872.41 478.38 C874.79 481.85 876.71 485.36 878.54 489.13 C880.33 492.83 882.19 496.26 884.54 499.63 C887.52 503.94 889.82 508.46 892.1 513.17 C892.99 515 893.9 516.83 894.85 518.63 C898.12 524.86 900.65 531.29 902.82 537.98 C903.36 539.61 903.95 541.23 904.57 542.83 C907.72 551.73 908.1 559.85 907.95 569.17 C907.91 571.59 907.91 574.02 907.91 576.44 C907.9 578.01 907.89 579.57 907.87 581.13 C907.87 581.85 907.87 582.56 907.87 583.3 C907.78 587.62 907.07 591.11 905.54 595.13 C904.92 597.49 904.32 599.84 903.72 602.2 C901.26 611.65 898.36 620.93 892.86 629.1 C890.68 632.45 888.85 636 886.97 639.52 C885.55 642.1 884.06 644.61 882.54 647.13 C881.57 648.82 880.61 650.5 879.65 652.19 C877.55 655.87 875.41 659.53 873.29 663.2 C864.97 677.5 864.97 677.5 856.91 691.95 C855.27 694.93 853.48 697.71 851.54 700.51 C848.18 705.42 845.84 710.67 843.54 716.13 C842.88 716.13 842.22 716.13 841.54 716.13 C841.3 716.95 841.07 717.77 840.83 718.62 C839.26 722.87 837.13 726.52 834.79 730.38 C834.34 731.14 833.89 731.89 833.42 732.67 C831.55 735.81 829.65 738.95 827.76 742.08 C824.76 747.03 821.93 752.04 819.18 757.13 C815.12 764.55 810.9 771.88 806.54 779.13 C804.43 782.67 802.33 786.22 800.22 789.76 C799.67 790.69 799.11 791.63 798.54 792.59 C794.72 799.03 791.08 805.55 787.54 812.13 C783.93 818.77 780.11 825.27 776.26 831.77 C773.94 835.71 771.68 839.66 769.54 843.7 C767.08 848.3 764.33 852.67 761.54 857.07 C757.99 862.66 754.87 868.28 752 874.25 C749.9 878.39 747.41 882.26 744.94 886.19 C741.81 891.24 738.94 896.45 736.04 901.63 C731.92 908.98 727.71 916.22 723.24 923.36 C720.48 927.85 718.01 932.49 715.54 937.13 C712.39 943.04 709.14 948.83 705.6 954.51 C702.33 959.77 699.36 965.13 696.46 970.6 C693.82 975.52 690.95 980.3 688.1 985.09 C685.9 988.81 683.73 992.53 681.66 996.32 C680.39 998.65 679.09 1000.8 677.6 1003.01 C675.22 1006.61 673.22 1010.34 671.18 1014.13 C668.93 1018.24 666.56 1022.27 664.19 1026.3 C662.79 1028.71 661.43 1031.13 660.1 1033.57 C658.05 1037.3 655.84 1040.9 653.6 1044.51 C650.02 1050.28 646.72 1056.14 643.54 1062.13 C639.17 1070.34 634.46 1078.26 629.54 1086.13 C628.96 1087.1 628.38 1088.06 627.79 1089.05 C623.69 1095.77 618.98 1101.46 613.54 1107.13 C612.73 1107.98 611.93 1108.83 611.1 1109.7 C598.85 1121.35 598.85 1121.35 591.54 1125.13 C589.91 1126.13 588.28 1127.13 586.66 1128.13 C582.08 1130.88 577.48 1133.14 572.54 1135.13 C571.75 1135.47 570.97 1135.81 570.16 1136.16 C554.29 1142.57 537.36 1142.57 520.52 1142.52 C518.24 1142.52 515.96 1142.52 513.68 1142.53 C507.46 1142.54 501.24 1142.54 495.01 1142.53 C488.98 1142.52 482.94 1142.53 476.91 1142.54 C463.81 1142.55 450.72 1142.55 437.62 1142.54 C426.16 1142.53 414.71 1142.53 403.25 1142.54 C402.11 1142.54 402.11 1142.54 400.94 1142.54 C397.85 1142.54 394.75 1142.54 391.66 1142.54 C362.69 1142.55 333.71 1142.54 304.74 1142.52 C279.02 1142.51 253.31 1142.51 227.6 1142.53 C198.67 1142.54 169.74 1142.55 140.82 1142.54 C137.73 1142.54 134.64 1142.54 131.56 1142.54 C130.42 1142.54 130.42 1142.54 129.26 1142.53 C117.81 1142.53 106.36 1142.54 94.91 1142.54 C81.88 1142.55 68.86 1142.55 55.84 1142.53 C49.2 1142.53 42.55 1142.52 35.91 1142.53 C29.83 1142.54 23.74 1142.54 17.66 1142.52 C15.46 1142.52 13.27 1142.52 11.07 1142.53 C-6.03 1142.58 -21.18 1140.74 -37.46 1135.13 C-38.29 1134.87 -39.11 1134.61 -39.96 1134.34 C-48.28 1131.43 -55.31 1126.17 -62.46 1121.13 C-63.41 1120.47 -63.41 1120.47 -64.38 1119.79 C-68.12 1117.17 -71.28 1114.4 -74.46 1111.13 C-75.27 1110.52 -76.07 1109.9 -76.9 1109.26 C-81.76 1105.23 -85.27 1100.55 -88.46 1095.13 C-89.29 1094.16 -90.11 1093.2 -90.96 1092.2 C-93.39 1089.22 -94.81 1086.58 -96.46 1083.13 C-97.45 1081.46 -98.45 1079.79 -99.46 1078.13 C-105.46 1068.22 -105.46 1068.22 -105.46 1065.13 C-106.12 1065.13 -106.78 1065.13 -107.46 1065.13 C-107.73 1064.57 -108 1064.02 -108.28 1063.44 C-113.22 1053.32 -118.71 1043.57 -125.09 1034.29 C-127.1 1031.13 -128.68 1027.8 -130.3 1024.43 C-131.33 1022.4 -132.43 1020.57 -133.71 1018.7 C-135.46 1016.13 -135.46 1016.13 -136.46 1013.13 C-137.12 1012.47 -137.78 1011.81 -138.46 1011.13 C-139.41 1009.25 -140.35 1007.36 -141.27 1005.47 C-142.97 1002.14 -144.93 998.99 -146.88 995.8 C-149.1 992.06 -151.13 988.23 -153.17 984.38 C-154.39 982.03 -154.39 982.03 -156.46 980.13 C-157.48 978.14 -158.48 976.14 -159.46 974.13 C-160.28 972.57 -161.12 971 -161.96 969.45 C-162.57 968.33 -162.57 968.33 -163.18 967.19 C-164.37 965.1 -164.37 965.1 -166.06 963.61 C-167.77 961.81 -167.9 960.54 -168.46 958.13 C-169.39 956.44 -170.38 954.77 -171.4 953.13 C-174.32 948.43 -174.32 948.43 -175.53 945.95 C-176.44 943.96 -176.44 943.96 -178.46 942.13 C-179.27 940.57 -180.03 938.98 -180.78 937.38 C-183.91 930.99 -187.46 924.88 -191.09 918.76 C-191.65 917.81 -192.21 916.86 -192.79 915.88 C-195.02 912.14 -197.26 908.44 -199.69 904.82 C-201.47 902.13 -202.88 899.42 -204.28 896.51 C-207.38 890.2 -210.85 884.16 -214.46 878.13 C-215 877.23 -215.54 876.33 -216.1 875.4 C-217.11 873.73 -218.11 872.06 -219.12 870.38 C-220.95 867.33 -222.7 864.23 -224.46 861.13 C-225 860.29 -225.54 859.44 -226.09 858.57 C-227.63 855.84 -228.56 853.13 -229.46 850.13 C-230.12 850.13 -230.78 850.13 -231.46 850.13 C-231.72 849.61 -231.97 849.1 -232.23 848.56 C-234.71 843.55 -237.36 838.79 -240.46 834.13 C-241.09 831.95 -241.09 831.95 -241.46 830.13 C-242.12 830.13 -242.78 830.13 -243.46 830.13 C-243.58 829.57 -243.69 829 -243.81 828.42 C-244.54 825.87 -245.62 823.91 -246.96 821.63 C-248.31 819.34 -249.38 817.53 -249.93 814.92 C-250.11 814.33 -250.28 813.74 -250.46 813.13 C-251.45 812.8 -252.44 812.47 -253.46 812.13 C-255 809.26 -255 809.26 -256.53 805.7 C-258.43 801.03 -258.43 801.03 -261.46 797.13 C-263.2 794.15 -264.88 791.13 -266.54 788.1 C-268.37 784.51 -268.37 784.51 -271.46 782.13 C-271.59 781.43 -271.71 780.72 -271.83 779.99 C-272.64 776.31 -274.49 773.55 -276.53 770.45 C-280.46 764.38 -280.46 764.38 -280.46 762.13 C-281.12 762.13 -281.78 762.13 -282.46 762.13 C-282.69 761.49 -282.92 760.86 -283.15 760.2 C-285.6 754.49 -288.77 749.18 -292.09 743.95 C-294.1 740.76 -295.8 737.52 -297.46 734.13 C-301.43 726.5 -301.43 726.5 -306.15 719.32 C-308.33 716.32 -309.86 713.47 -311.46 710.13 C-312.67 707.91 -313.9 705.71 -315.13 703.51 C-316.03 701.91 -316.91 700.31 -317.79 698.7 C-318.22 697.91 -318.65 697.13 -319.09 696.32 C-319.47 695.61 -319.86 694.91 -320.25 694.18 C-321.44 692.09 -321.44 692.09 -322.99 690.12 C-324.43 688.17 -325.42 686.32 -326.46 684.13 C-333.14 668.96 -333.14 668.96 -343.46 657.13 C-343.87 655.53 -344.28 653.92 -344.69 652.31 C-345.99 648.66 -348.14 645.52 -350.22 642.27 C-351.46 640.13 -351.46 640.13 -351.46 638.13 C-352.12 638.13 -352.78 638.13 -353.46 638.13 C-353.93 637.18 -354.4 636.23 -354.89 635.25 C-355.52 633.98 -356.15 632.71 -356.78 631.45 C-357.24 630.51 -357.24 630.51 -357.71 629.55 C-359.07 626.82 -360.45 624.15 -362.06 621.55 C-363.65 618.81 -364.58 616.15 -365.53 613.13 C-366.86 608.93 -366.86 608.93 -368.42 604.81 C-372.66 593.9 -372.99 582.96 -372.9 571.45 C-372.9 570.65 -372.9 569.86 -372.89 569.04 C-372.83 557.3 -372.21 546.35 -368.46 535.13 C-368.15 534.09 -367.83 533.04 -367.51 531.96 C-362.84 518.21 -354.97 504.83 -346.46 493.13 C-345.69 491.7 -344.95 490.24 -344.28 488.76 C-341.67 483.38 -338.67 478.29 -335.62 473.16 C-331.58 466.36 -327.65 459.5 -323.75 452.62 C-320.81 447.45 -317.81 442.34 -314.72 437.26 C-313.73 435.59 -312.83 433.87 -311.96 432.13 C-309.17 426.55 -305.8 421.29 -302.51 415.99 C-298.83 410.08 -295.31 404.14 -292.02 398.01 C-287.86 390.33 -283.44 382.79 -279.03 375.26 C-276.26 370.54 -273.57 365.78 -270.9 361.01 C-267.1 354.23 -263.16 347.54 -259.1 340.91 C-256.86 337.11 -254.73 333.25 -252.59 329.38 C-251.31 327.08 -250.03 324.77 -248.75 322.47 C-247.87 320.88 -247 319.29 -246.13 317.69 C-245.49 316.51 -245.49 316.51 -244.83 315.31 C-244.45 314.6 -244.06 313.9 -243.67 313.17 C-242.4 311.03 -240.97 309.11 -239.46 307.13 C-238.54 305.53 -237.65 303.9 -236.78 302.26 C-232.03 293.46 -227.04 284.81 -221.98 276.19 C-221.36 275.13 -220.74 274.07 -220.1 272.98 C-218.87 270.87 -217.63 268.77 -216.39 266.66 C-213.2 261.23 -210.24 255.78 -207.46 250.13 C-206.32 248.24 -205.13 246.38 -203.94 244.51 C-200.99 239.75 -198.27 234.85 -195.51 229.98 C-193.84 227.03 -192.15 224.08 -190.46 221.13 C-189.8 219.97 -189.14 218.81 -188.47 217.65 C-187.1 215.25 -185.73 212.86 -184.36 210.46 C-183.66 209.25 -182.97 208.03 -182.28 206.82 C-181.94 206.23 -181.6 205.65 -181.26 205.04 C-179.41 201.82 -177.61 198.58 -175.84 195.32 C-174.21 192.36 -172.43 189.56 -170.53 186.76 C-167.75 182.67 -165.39 178.45 -163.06 174.1 C-158.89 166.36 -154.43 158.77 -149.98 151.19 C-149.36 150.13 -148.74 149.07 -148.1 147.98 C-146.87 145.87 -145.63 143.77 -144.39 141.66 C-141.2 136.23 -138.24 130.78 -135.46 125.13 C-134.7 123.83 -133.91 122.53 -133.09 121.26 C-128.42 113.94 -124.08 106.49 -119.96 98.85 C-118.52 96.24 -117.01 93.68 -115.46 91.13 C-112.28 85.9 -109.37 80.53 -106.46 75.13 C-101.25 65.57 -95.83 56.4 -89.3 47.68 C-87.41 45.15 -87.41 45.15 -85.85 42.31 C-85.39 41.59 -84.93 40.87 -84.46 40.13 C-83.8 40.13 -83.14 40.13 -82.46 40.13 C-82.13 39.14 -81.8 38.15 -81.46 37.13 C-79.48 35.45 -77.48 33.78 -75.46 32.13 C-74.8 31.14 -74.14 30.15 -73.46 29.13 C-72.8 29.13 -72.14 29.13 -71.46 29.13 C-71.13 28.14 -70.8 27.15 -70.46 26.13 C-52.51 9.04 -24.31 -0.04 0 0 Z "
        fill="#3A85FA" transform="translate(372.46307849884033,-0.13422107696533203)" />
    <path
        d="M0 0 C9 5.62 9 5.62 11.58 8.21 C12.17 8.8 12.77 9.39 13.38 9.99 C14 10.62 14.63 11.26 15.27 11.91 C15.95 12.59 16.64 13.27 17.34 13.98 C19.62 16.25 21.89 18.53 24.16 20.82 C25.8 22.46 27.44 24.09 29.07 25.73 C33.51 30.17 37.94 34.62 42.37 39.06 C47.01 43.72 51.65 48.37 56.3 53.02 C64.1 60.83 71.89 68.64 79.68 76.45 C87.69 84.49 95.7 92.52 103.71 100.55 C104.21 101.04 104.7 101.54 105.21 102.05 C107.69 104.53 110.17 107.01 112.64 109.49 C129.73 126.6 146.8 143.71 163.87 160.84 C164.59 161.56 165.31 162.28 166.05 163.02 C167.37 164.35 168.7 165.68 170.02 167.01 C173.34 170.34 176.67 173.67 180 177 C181.43 178.43 182.86 179.86 184.29 181.29 C185.52 182.53 185.52 182.53 186.79 183.8 C187.68 184.69 188.57 185.58 189.48 186.5 C199.15 196.18 208.82 205.86 218.48 215.54 C224.33 221.39 230.18 227.25 236.03 233.1 C241.14 238.22 246.25 243.34 251.37 248.46 C254.07 251.17 256.77 253.87 259.47 256.58 C262.01 259.13 264.56 261.67 267.1 264.21 C268.47 265.59 269.84 266.96 271.21 268.34 C272.45 269.57 272.45 269.57 273.71 270.83 C274.42 271.54 275.14 272.26 275.87 272.99 C278.04 275.1 278.04 275.1 280.77 277.14 C281.5 277.75 282.24 278.37 283 279 C283 279.66 283 280.32 283 281 C282.34 281 281.68 281 281 281 C280.77 281.82 280.54 282.64 280.3 283.48 C278.73 287.74 276.59 291.38 274.25 295.25 C273.8 296 273.35 296.76 272.89 297.53 C271.01 300.68 269.11 303.81 267.22 306.95 C264.23 311.9 261.39 316.9 258.64 321.99 C254.59 329.42 250.36 336.75 246 344 C243.89 347.54 241.79 351.08 239.69 354.62 C239.13 355.56 238.58 356.49 238 357.46 C234.19 363.9 230.55 370.41 227 377 C223.39 383.64 219.57 390.14 215.72 396.64 C213.4 400.57 211.14 404.53 209 408.56 C206.54 413.16 203.8 417.54 201 421.94 C197.45 427.52 194.34 433.15 191.46 439.12 C189.36 443.26 186.87 447.12 184.4 451.05 C181.28 456.11 178.41 461.31 175.5 466.5 C171.38 473.85 167.17 481.09 162.7 488.23 C159.95 492.72 157.47 497.35 155 502 C151.86 507.91 148.61 513.69 145.06 519.38 C141.79 524.64 138.82 529.99 135.92 535.47 C133.28 540.38 130.41 545.16 127.56 549.96 C125.36 553.67 123.2 557.4 121.12 561.19 C119.85 563.52 118.55 565.66 117.06 567.88 C114.69 571.47 112.68 575.2 110.64 579 C108.39 583.11 106.02 587.13 103.65 591.17 C102.25 593.57 100.89 595.99 99.56 598.44 C97.52 602.16 95.31 605.77 93.06 609.38 C89.49 615.14 86.19 621.01 83 627 C78.64 635.2 73.92 643.12 69 651 C68.42 651.96 67.85 652.93 67.25 653.92 C63.16 660.64 58.44 666.33 53 672 C52.2 672.85 51.39 673.69 50.56 674.56 C38.32 686.21 38.32 686.21 31 690 C29.37 690.99 27.75 691.99 26.12 693 C21.55 695.75 16.95 698 12 700 C11.22 700.34 10.43 700.68 9.62 701.03 C-8.59 708.38 -28.23 707.41 -47.5 707.3 C-51.43 707.29 -55.36 707.28 -59.29 707.28 C-66.71 707.27 -74.13 707.25 -81.54 707.22 C-90 707.18 -98.45 707.17 -106.91 707.15 C-124.27 707.12 -141.64 707.07 -159 707 C-159.26 706.46 -159.52 705.91 -159.78 705.35 C-160.3 704.27 -160.3 704.27 -160.83 703.18 C-161.17 702.47 -161.51 701.76 -161.86 701.03 C-163.6 697.94 -165.95 695.92 -168.62 693.62 C-169.69 692.69 -170.76 691.75 -171.82 690.81 C-172.35 690.35 -172.88 689.88 -173.43 689.4 C-175.87 687.22 -178.19 684.93 -180.5 682.62 C-181.27 681.85 -182.05 681.08 -182.84 680.29 C-185 678 -185 678 -186.78 675.65 C-188.68 673.38 -190.51 671.63 -192.75 669.72 C-197.18 665.93 -201.11 661.78 -205.06 657.5 C-214.14 647.68 -214.14 647.68 -223.93 638.59 C-228.28 634.84 -232.17 630.72 -236.06 626.5 C-240.95 621.23 -245.89 616.05 -251 611 C-252.67 609.33 -254.33 607.67 -256 606 C-256.76 605.24 -257.52 604.48 -258.3 603.7 C-330.99 531.01 -403.67 458.33 -521.65 340.35 C-523.99 338.01 -526.34 335.68 -528.69 333.35 C-530.46 331.59 -532.23 329.82 -534 328.06 C-534.89 327.18 -535.78 326.3 -536.7 325.39 C-544.02 318.1 -544.02 318.1 -546.88 314.59 C-548.76 312.29 -550.6 310.45 -552.88 308.56 C-556.79 305.22 -560.4 301.67 -564 298 C-566.72 295.27 -569.45 292.56 -572.23 289.88 C-573.36 288.77 -574.49 287.67 -575.62 286.56 C-576.2 286.02 -576.77 285.47 -577.36 284.9 C-578.19 284.09 -578.19 284.09 -579.04 283.25 C-579.54 282.77 -580.03 282.29 -580.55 281.8 C-582 280 -582 280 -585 274 C-567.51 274 -550.02 274 -532 274 C-532 238.03 -532 202.06 -532 165 C-529.52 163.76 -527.88 163.87 -525.11 163.87 C-524.09 163.87 -523.07 163.86 -522.02 163.86 C-520.92 163.86 -519.82 163.87 -518.68 163.87 C-517.56 163.87 -516.43 163.87 -515.27 163.86 C-512.88 163.86 -510.5 163.87 -508.11 163.87 C-504.45 163.87 -500.78 163.87 -497.12 163.86 C-494.81 163.86 -492.5 163.87 -490.18 163.87 C-489.08 163.87 -487.98 163.86 -486.84 163.86 C-485.32 163.87 -485.32 163.87 -483.76 163.87 C-482.87 163.87 -481.97 163.87 -481.04 163.87 C-479 164 -479 164 -478 165 C-477.89 166.4 -477.85 167.81 -477.84 169.22 C-477.83 170.13 -477.82 171.04 -477.81 171.98 C-477.81 172.98 -477.8 173.99 -477.79 175.03 C-477.78 176.08 -477.77 177.13 -477.76 178.22 C-477.73 181.72 -477.71 185.22 -477.68 188.72 C-477.66 191.14 -477.64 193.56 -477.62 195.98 C-477.57 202.37 -477.52 208.75 -477.47 215.13 C-477.41 222.79 -477.34 230.44 -477.28 238.09 C-477.18 249.73 -477.09 261.36 -477 273 C-458.85 273.33 -440.7 273.66 -422 274 C-422.06 245.43 -422.13 216.86 -422.23 188.29 C-422.24 184.91 -422.25 181.53 -422.26 178.16 C-422.27 177.15 -422.27 177.15 -422.27 176.12 C-422.3 165.25 -422.33 154.38 -422.35 143.51 C-422.37 132.35 -422.41 121.19 -422.45 110.02 C-422.47 103.76 -422.49 97.49 -422.5 91.23 C-422.5 85.32 -422.52 79.42 -422.55 73.52 C-422.56 71.36 -422.57 69.2 -422.57 67.04 C-422.52 47.36 -422.52 47.36 -429 29 C-428.67 28.34 -428.34 27.68 -428 27 C-418.31 32.86 -410.43 41.42 -402.52 49.41 C-401.03 50.91 -399.53 52.41 -398.04 53.91 C-394.88 57.08 -391.72 60.26 -388.56 63.44 C-384.88 67.15 -381.19 70.86 -377.5 74.56 C-376.03 76.04 -374.56 77.51 -373.1 78.99 C-372.21 79.88 -371.32 80.77 -370.4 81.69 C-369.23 82.87 -369.23 82.87 -368.04 84.07 C-365.95 86.15 -365.95 86.15 -363 88 C-362.69 90.5 -362.58 92.76 -362.6 95.26 C-362.59 96.4 -362.59 96.4 -362.58 97.56 C-362.56 100.11 -362.57 102.66 -362.57 105.21 C-362.56 107.03 -362.55 108.86 -362.54 110.68 C-362.51 115.64 -362.5 120.6 -362.49 125.56 C-362.48 130.74 -362.46 135.92 -362.43 141.1 C-362.39 150.91 -362.36 160.73 -362.34 170.54 C-362.31 181.71 -362.27 192.88 -362.22 204.05 C-362.13 227.03 -362.06 250.02 -362 273 C-343.85 273.33 -325.7 273.66 -307 274 C-307 238.03 -307 202.06 -307 165 C-304.37 163.68 -302.39 163.86 -299.44 163.84 C-298.27 163.83 -297.11 163.82 -295.91 163.81 C-294.64 163.8 -293.37 163.8 -292.07 163.79 C-290.08 163.77 -288.08 163.75 -286.09 163.73 C-281.18 163.67 -276.27 163.63 -271.35 163.6 C-268.6 163.58 -265.85 163.56 -263.1 163.52 C-260.52 163.49 -257.93 163.47 -255.34 163.47 C-238.75 163.24 -225.73 157.79 -213.87 146.13 C-201.51 133.19 -198.53 119.79 -198.57 102.45 C-198.56 100.74 -198.56 99.03 -198.55 97.32 C-198.54 93.74 -198.54 90.17 -198.55 86.6 C-198.57 82.05 -198.55 77.5 -198.52 72.95 C-198.5 69.42 -198.5 65.89 -198.5 62.36 C-198.5 60.69 -198.5 59.01 -198.49 57.33 C-198.43 48.71 -198.57 41.08 -202.24 33.07 C-203 31 -203 31 -202 28 C-193.27 33.48 -186.35 40.25 -179.17 47.54 C-177.96 48.75 -176.75 49.96 -175.55 51.17 C-172.39 54.34 -169.25 57.51 -166.11 60.69 C-162.91 63.91 -159.71 67.13 -156.5 70.35 C-151.33 75.55 -146.16 80.75 -141 85.97 C-138.01 88.99 -135.01 92 -132 95 C-130.26 96.75 -128.51 98.51 -126.77 100.27 C-125.29 101.75 -123.81 103.24 -122.33 104.72 C-121.31 105.75 -120.29 106.77 -119.28 107.8 C-117.8 109.29 -116.31 110.78 -114.83 112.27 C-113.95 113.15 -113.07 114.03 -112.17 114.95 C-110.17 117.03 -110.17 117.03 -108 118 C-108 151.33 -108 184.66 -108 219 C-124.5 219.33 -141 219.66 -158 220 C-158.33 220.33 -158.66 220.66 -159 221 C-159 238.16 -159 255.32 -159 273 C-106.53 273.33 -54.06 273.66 0 274 C-0.33 256.18 -0.66 238.36 -1 220 C-17.41 219.71 -17.41 219.71 -33.82 219.43 C-35.87 219.39 -37.92 219.36 -39.96 219.32 C-41.04 219.3 -42.11 219.28 -43.22 219.27 C-44.24 219.25 -45.25 219.23 -46.3 219.21 C-47.18 219.19 -48.07 219.17 -48.98 219.16 C-51 219 -51 219 -52 218 C-52.1 215.86 -52.12 213.72 -52.12 211.58 C-52.12 210.9 -52.12 210.22 -52.12 209.52 C-52.12 207.23 -52.12 204.94 -52.11 202.65 C-52.11 201.01 -52.11 199.38 -52.11 197.74 C-52.11 193.29 -52.11 188.83 -52.1 184.38 C-52.1 179.73 -52.09 175.08 -52.09 170.43 C-52.09 161.62 -52.08 152.81 -52.07 143.99 C-52.06 133.97 -52.06 123.94 -52.05 113.91 C-52.04 93.27 -52.02 72.64 -52 52 C-34.84 52 -17.68 52 0 52 C0 34.84 0 17.68 0 0 Z "
        fill="#3678DE" transform="translate(933,435)" />
    <path
        d="M0 0 C1.37 -0 2.74 -0 4.1 -0.01 C6.95 -0.01 9.8 -0.01 12.65 0.01 C16.27 0.02 19.89 0.01 23.51 -0 C26.33 -0.01 29.15 -0.01 31.97 -0 C33.94 -0 35.91 -0.01 37.88 -0.02 C54.09 0.11 68.99 4.76 80.94 16.02 C93.05 29.16 99.75 43.76 99.69 61.7 C99.69 63.09 99.69 63.09 99.69 64.51 C99.69 67.62 99.69 70.72 99.68 73.83 C99.68 76.05 99.68 78.28 99.68 80.51 C99.68 86.55 99.67 92.6 99.67 98.64 C99.66 104.96 99.66 111.28 99.66 117.6 C99.66 128.2 99.65 138.8 99.64 149.41 C99.63 160.33 99.63 171.25 99.62 182.17 C99.62 182.84 99.62 183.52 99.62 184.21 C99.62 187.59 99.62 190.97 99.62 194.35 C99.61 222.36 99.59 250.38 99.57 278.4 C91.75 278.42 83.94 278.44 76.12 278.45 C73.46 278.46 70.8 278.47 68.14 278.47 C64.33 278.49 60.51 278.49 56.7 278.5 C55.5 278.5 54.3 278.51 53.07 278.51 C51.41 278.51 51.41 278.51 49.73 278.51 C48.75 278.51 47.78 278.52 46.77 278.52 C44.57 278.4 44.57 278.4 43.57 277.4 C43.46 275.99 43.42 274.59 43.41 273.18 C43.4 272.27 43.39 271.36 43.38 270.42 C43.37 269.41 43.37 268.41 43.36 267.37 C43.35 266.32 43.34 265.26 43.33 264.18 C43.3 260.68 43.27 257.18 43.25 253.68 C43.23 251.26 43.21 248.84 43.19 246.42 C43.13 240.03 43.08 233.65 43.03 227.27 C42.98 219.61 42.91 211.96 42.84 204.31 C42.75 192.67 42.66 181.04 42.57 169.4 C25.08 169.4 7.59 169.4 -10.43 169.4 C-10.43 205.37 -10.43 241.34 -10.43 278.4 C-19.49 278.42 -28.54 278.44 -37.87 278.46 C-40.73 278.47 -43.6 278.48 -46.54 278.49 C-48.8 278.49 -51.05 278.49 -53.3 278.5 C-55.08 278.5 -55.08 278.5 -56.89 278.51 C-58 278.51 -59.12 278.51 -60.27 278.51 C-61.25 278.51 -62.22 278.52 -63.23 278.52 C-65.43 278.4 -65.43 278.4 -66.43 277.4 C-66.54 274.54 -66.58 271.71 -66.57 268.86 C-66.58 267.95 -66.58 267.04 -66.58 266.11 C-66.59 263.04 -66.59 259.98 -66.59 256.91 C-66.6 254.73 -66.6 252.54 -66.61 250.35 C-66.62 244.39 -66.63 238.42 -66.63 232.46 C-66.64 228.73 -66.64 225.01 -66.65 221.28 C-66.66 209.62 -66.67 197.97 -66.67 186.31 C-66.67 184.97 -66.67 183.62 -66.67 182.28 C-66.67 181.61 -66.67 180.95 -66.67 180.26 C-66.68 169.49 -66.7 158.72 -66.72 147.95 C-66.74 136.88 -66.76 125.82 -66.76 114.75 C-66.76 108.54 -66.76 102.33 -66.78 96.12 C-66.8 90.27 -66.8 84.42 -66.79 78.57 C-66.79 76.43 -66.79 74.29 -66.8 72.15 C-66.89 52.01 -64.38 34.67 -49.67 19.57 C-48.93 18.85 -48.19 18.14 -47.43 17.4 C-46.82 16.76 -46.21 16.13 -45.57 15.48 C-33.14 3.46 -16.7 -0.08 0 0 Z "
        fill="#FCFDFF" transform="translate(411.43359375,430.6015625)" />
    <path
        d="M0 0 C1.39 -0.01 2.78 -0.01 4.17 -0.02 C7.07 -0.03 9.97 -0.04 12.87 -0.03 C16.54 -0.03 20.22 -0.06 23.9 -0.1 C26.76 -0.12 29.63 -0.12 32.5 -0.12 C34.5 -0.12 36.5 -0.15 38.5 -0.17 C54.62 -0.09 69.16 4.56 80.8 15.9 C94.53 29.92 99.25 44.86 99.14 64.09 C99.15 65.79 99.15 67.5 99.16 69.21 C99.16 72.77 99.15 76.33 99.13 79.89 C99.11 84.42 99.13 88.96 99.15 93.49 C99.16 97.01 99.16 100.53 99.15 104.05 C99.15 105.72 99.15 107.39 99.16 109.06 C99.24 126.57 94.54 139.23 82.3 152.15 C72.06 161.86 59.57 168.34 45.35 168.54 C44.1 168.56 42.84 168.58 41.54 168.6 C39.57 168.63 39.57 168.63 37.56 168.65 C36.35 168.67 35.13 168.69 33.88 168.71 C29.36 168.78 24.83 168.84 20.3 168.9 C5.11 169.12 5.11 169.12 -10.39 169.34 C-10.39 205.31 -10.39 241.28 -10.39 278.34 C-19.44 278.36 -28.5 278.38 -37.82 278.4 C-40.69 278.41 -43.55 278.42 -46.5 278.43 C-48.75 278.43 -51 278.43 -53.26 278.43 C-55.03 278.44 -55.03 278.44 -56.84 278.45 C-57.96 278.45 -59.07 278.45 -60.22 278.45 C-61.2 278.45 -62.17 278.45 -63.18 278.46 C-65.39 278.34 -65.39 278.34 -66.39 277.34 C-66.49 274.48 -66.53 271.65 -66.53 268.79 C-66.53 267.89 -66.53 266.98 -66.54 266.04 C-66.54 262.98 -66.55 259.91 -66.55 256.85 C-66.55 254.66 -66.56 252.48 -66.56 250.29 C-66.58 244.32 -66.58 238.36 -66.59 232.4 C-66.59 228.67 -66.59 224.95 -66.6 221.22 C-66.61 209.56 -66.62 197.9 -66.63 186.25 C-66.63 184.9 -66.63 183.56 -66.63 182.22 C-66.63 181.55 -66.63 180.88 -66.63 180.2 C-66.63 169.43 -66.65 158.65 -66.67 147.88 C-66.7 136.82 -66.71 125.75 -66.71 114.69 C-66.71 108.48 -66.72 102.27 -66.73 96.06 C-66.75 90.21 -66.75 84.36 -66.74 78.51 C-66.74 76.37 -66.75 74.23 -66.76 72.09 C-66.85 51.95 -64.33 34.59 -49.61 19.5 C-48.88 18.79 -48.14 18.07 -47.39 17.34 C-46.5 16.4 -46.5 16.4 -45.6 15.45 C-41.4 11.34 -36.64 8.67 -31.45 6.02 C-30.46 5.52 -30.46 5.52 -29.46 5 C-19.87 0.32 -10.55 0.02 0 0 Z "
        fill="#FCFDFF" transform="translate(636.38671875,430.6640625)" />
    <path
        d="M0 0 C1.15 0 2.31 0 3.5 0 C4.46 -0 4.46 -0 5.44 -0.01 C7.61 -0.01 9.77 -0 11.93 0.01 C13.47 0 15.02 0 16.56 0 C20.77 -0 24.97 0 29.18 0.01 C33.57 0.02 37.96 0.02 42.35 0.02 C49.73 0.02 57.1 0.03 64.48 0.04 C73.02 0.06 81.56 0.06 90.09 0.06 C98.29 0.06 106.5 0.07 114.7 0.08 C118.19 0.08 121.69 0.08 125.18 0.08 C129.3 0.08 133.41 0.09 137.52 0.1 C139.04 0.1 140.55 0.1 142.06 0.1 C144.12 0.1 146.18 0.11 148.24 0.12 C149.39 0.12 150.55 0.12 151.74 0.12 C154.3 0.25 154.3 0.25 155.3 1.25 C155.4 2.97 155.42 4.69 155.42 6.41 C155.42 7.51 155.42 8.61 155.42 9.75 C155.41 10.95 155.41 12.14 155.4 13.38 C155.4 15.21 155.4 15.21 155.4 17.07 C155.39 20.99 155.38 24.9 155.37 28.81 C155.36 31.46 155.36 34.1 155.35 36.75 C155.34 43.25 155.32 49.75 155.3 56.25 C138.14 56.25 120.98 56.25 103.3 56.25 C103.63 111.03 103.96 165.81 104.3 222.25 C129.05 222.74 129.05 222.74 154.3 223.25 C155.3 224.25 155.3 224.25 155.43 226.42 C155.42 227.38 155.42 228.33 155.42 229.32 C155.42 230.4 155.42 231.48 155.42 232.6 C155.41 233.77 155.41 234.95 155.4 236.16 C155.4 237.95 155.4 237.95 155.4 239.79 C155.39 243.63 155.38 247.47 155.37 251.31 C155.36 253.91 155.36 256.51 155.35 259.1 C155.34 265.48 155.33 271.87 155.3 278.25 C134.59 278.27 113.88 278.29 93.16 278.3 C83.55 278.31 73.93 278.31 64.31 278.32 C55.93 278.33 47.55 278.34 39.18 278.34 C34.74 278.34 30.3 278.35 25.86 278.35 C21.68 278.36 17.51 278.36 13.34 278.36 C11.8 278.36 10.26 278.36 8.73 278.37 C6.64 278.37 4.55 278.37 2.46 278.37 C1.29 278.37 0.12 278.37 -1.09 278.37 C-3.7 278.25 -3.7 278.25 -4.7 277.25 C-4.8 275.63 -4.83 274.01 -4.84 272.39 C-4.85 271.36 -4.85 270.32 -4.86 269.26 C-4.86 268.13 -4.86 267.01 -4.86 265.85 C-4.87 264.12 -4.87 264.12 -4.87 262.37 C-4.88 259.93 -4.88 257.5 -4.88 255.07 C-4.88 251.33 -4.9 247.6 -4.92 243.86 C-4.92 241.5 -4.92 239.14 -4.93 236.78 C-4.93 235.66 -4.94 234.54 -4.95 233.38 C-4.94 232.34 -4.94 231.3 -4.94 230.23 C-4.94 229.32 -4.94 228.4 -4.94 227.46 C-4.7 225.25 -4.7 225.25 -2.7 223.25 C13.8 223.25 30.3 223.25 47.3 223.25 C46.97 168.47 46.64 113.69 46.3 57.25 C30.46 56.92 14.62 56.59 -1.7 56.25 C-2.69 55.59 -3.68 54.93 -4.7 54.25 C-5.07 52.05 -5.07 52.05 -5.07 49.28 C-5.07 48.25 -5.08 47.21 -5.09 46.15 C-5.08 45.02 -5.07 43.9 -5.06 42.75 C-5.06 41.6 -5.06 40.46 -5.06 39.27 C-5.06 36.85 -5.05 34.42 -5.03 31.99 C-5.01 28.26 -5.01 24.54 -5.02 20.81 C-5.01 18.46 -5 16.1 -5 13.75 C-5 12.63 -5 11.51 -5 10.35 C-4.99 9.32 -4.98 8.28 -4.97 7.22 C-4.97 6.3 -4.96 5.39 -4.96 4.45 C-4.55 0.99 -3.38 0.31 0 0 Z "
        fill="#FCFDFF" transform="translate(777.6952295303345,430.7511110305786)" />
    <path
        d="M0 0 C1.02 -0 2.04 -0.01 3.08 -0.01 C4.19 -0.01 5.29 -0.01 6.42 -0 C7.55 -0 8.68 -0.01 9.84 -0.01 C12.22 -0.01 14.61 -0.01 16.99 -0 C20.66 0 24.32 -0 27.99 -0.01 C30.3 -0.01 32.61 -0.01 34.92 -0 C36.03 -0.01 37.13 -0.01 38.27 -0.01 C39.79 -0 39.79 -0 41.34 0 C42.24 0 43.14 0 44.06 0 C46.11 0.13 46.11 0.13 47.11 1.13 C47.2 2.91 47.22 4.69 47.22 6.48 C47.22 7.62 47.22 8.76 47.22 9.93 C47.22 11.17 47.21 12.42 47.2 13.7 C47.2 14.96 47.2 16.22 47.2 17.53 C47.2 20.89 47.19 24.26 47.18 27.62 C47.17 31.05 47.16 34.48 47.16 37.92 C47.15 44.65 47.13 51.39 47.11 58.13 C29.62 58.13 12.13 58.13 -5.89 58.13 C-7.18 55.56 -7.01 53.73 -7.01 50.85 C-7.01 49.75 -7.01 48.65 -7.01 47.52 C-7 46.32 -7 45.13 -6.99 43.9 C-6.99 42.68 -6.99 41.47 -6.99 40.21 C-6.98 36.31 -6.97 32.41 -6.96 28.5 C-6.95 25.86 -6.95 23.22 -6.94 20.58 C-6.93 14.1 -6.91 7.61 -6.89 1.13 C-4.42 -0.11 -2.77 0 0 0 Z "
        fill="#3779DF" transform="translate(407.892822265625,485.87060546875)" />
    <path
        d="M0 0 C0.98 0 1.96 0 2.97 0 C4.02 0.01 5.07 0.01 6.16 0.02 C7.24 0.02 8.32 0.02 9.44 0.02 C12.89 0.03 16.34 0.04 19.8 0.05 C22.14 0.06 24.48 0.06 26.83 0.06 C32.57 0.08 38.31 0.09 44.05 0.11 C45.34 2.71 45.17 4.58 45.16 7.48 C45.16 8.6 45.16 9.72 45.16 10.88 C45.16 12.09 45.15 13.31 45.15 14.56 C45.14 15.8 45.14 17.04 45.14 18.32 C45.14 21.61 45.13 24.91 45.12 28.21 C45.11 31.58 45.1 34.94 45.1 38.3 C45.09 44.91 45.07 51.51 45.05 58.11 C27.56 58.11 10.07 58.11 -7.95 58.11 C-9.24 55.54 -9.07 53.72 -9.07 50.84 C-9.07 49.74 -9.07 48.64 -9.07 47.5 C-9.06 46.31 -9.06 45.12 -9.05 43.89 C-9.05 42.67 -9.05 41.45 -9.05 40.2 C-9.04 36.29 -9.03 32.39 -9.01 28.49 C-9.01 25.85 -9.01 23.21 -9 20.57 C-8.99 14.08 -8.97 7.6 -8.95 1.11 C-5.9 0.22 -3.18 -0.01 0 0 Z "
        fill="#3779DF" transform="translate(634.9521484375,485.886474609375)" />
    <path
        d="M0 0 C6.82 -0.03 13.64 -0.04 20.45 -0.05 C22.77 -0.06 25.1 -0.07 27.42 -0.08 C30.75 -0.09 34.07 -0.09 37.4 -0.1 C38.45 -0.1 39.49 -0.11 40.57 -0.11 C41.53 -0.11 42.49 -0.11 43.48 -0.11 C44.33 -0.12 45.18 -0.12 46.06 -0.12 C48 0 48 0 49 1 C49.09 2.5 49.12 4.01 49.11 5.52 C49.11 6.48 49.11 7.44 49.11 8.43 C49.11 9.48 49.1 10.52 49.1 11.6 C49.1 12.66 49.09 13.73 49.09 14.82 C49.09 18.24 49.08 21.65 49.06 25.06 C49.06 27.37 49.05 29.68 49.05 31.99 C49.04 37.66 49.02 43.33 49 49 C44.45 47.59 41.86 46.35 38.56 42.88 C37.79 42.07 37.02 41.27 36.23 40.44 C34.26 38.28 32.34 36.09 30.44 33.88 C27.54 30.49 24.41 27.59 20.99 24.74 C18.54 22.6 16.29 20.31 14 18 C13.16 17.21 12.33 16.42 11.46 15.61 C10.63 14.81 9.8 14.01 8.94 13.19 C8.1 12.4 7.26 11.61 6.4 10.79 C4.35 8.41 3.19 6.6 1.85 3.83 C1.33 2.75 1.33 2.75 0.79 1.65 C0.53 1.11 0.27 0.56 0 0 Z "
        fill="#3779DF" transform="translate(776,487)" />
    <path
        d="M0 0 C175.89 0 351.78 0 533 0 C533 0.33 533 0.66 533 1 C357.11 1 181.22 1 0 1 C0 0.67 0 0.34 0 0 Z "
        fill="#000002" transform="translate(377,1143)" />
    <path d="M0 0 C4 1 4 1 4 1 Z " fill="#000002" transform="translate(916,1142)" />
    <path d="M0 0 C2 1 2 1 2 1 Z " fill="#000002" transform="translate(362,1142)" />
    <path d="" fill="#3B86FB" transform="translate(0,0)" />
    <path d="" fill="#1E3E72" transform="translate(0,0)" />
</svg>